<svg xmlns="http://www.w3.org/2000/svg" width="37.385" height="26.169" viewBox="0 0 37.385 26.169">
  <path id="Icon_awesome-cloud-download-alt" data-name="Icon awesome-cloud-download-alt" d="M31.4,13.617a5.614,5.614,0,0,0-5.234-7.629,5.579,5.579,0,0,0-3.113.946A9.347,9.347,0,0,0,5.608,11.6c0,.158.006.315.012.473a8.414,8.414,0,0,0,2.792,16.35h21.5a7.477,7.477,0,0,0,1.5-14.8ZM23.64,18.8l-6.157,6.157a.938.938,0,0,1-1.32,0L10.006,18.8a.934.934,0,0,1,.66-1.595h3.82V10.662a.937.937,0,0,1,.935-.935h2.8a.937.937,0,0,1,.935.935V17.2h3.82a.934.934,0,0,1,.66,1.595Z" transform="translate(0 -2.25)" fill="#fff"/>
</svg>
